<svg t="1711353408489" class="icon" viewBox="0 0 1024 1024" version="1.1" xmlns="http://www.w3.org/2000/svg" p-id="1387" width="200" height="200"><path d="M828.875105 210.872104l44.090544 22.045272-36.974925 73.94985-44.090543-22.045272z" fill="#FFBF00" opacity=".56" p-id="1388"></path><path d="M110.398909 758.672048l37.64869 31.823085-49.546399 58.613473-37.644582-31.818977z" fill="#6E6E96" opacity=".35" p-id="1389"></path><path d="M220.707434 149.781312l73.94985 123.249749-42.274664 25.368907-73.94985-123.249749z" fill="#FF7F00" opacity=".47" p-id="1390"></path><path d="M995.673099 386.145573h-326.587185L508.1012 36.596959 356.323242 386.145573H29.752489l271.375407 243.783895-78.189641 331.16386 285.162945-197.791198 308.169564 188.596767-91.981288-354.158155z" fill="#FFD28F" p-id="1391"></path><path d="M222.938255 961.093328l288.43728-427.919021L816.270764 951.898897l-308.169564-188.596767zM29.752489 386.145573l481.623046 147.028734-210.247639 96.755161zM995.673099 386.145573l-484.297564 147.028734 212.913941 64.566435z" fill="#EBC184" p-id="1392"></path><path d="M511.375535 533.174307V43.708469L356.323242 386.145573zM511.375535 533.174307l157.710379-147.028734h326.587185zM356.323242 386.145573H29.752489l481.623046 147.028734z" fill="#FFFFFF" opacity=".34" p-id="1393"></path><path d="M508.1012 763.30213l3.274335-230.127823-288.43728 427.919021z" fill="#D9B27A" p-id="1394"></path><path d="M105.571627 415.199647l349.096698 64.204903 56.70721-366.240739v420.010496z" fill="#FFF3E0" p-id="1395"></path><path d="M222.938255 989.144971a16.437408 16.437408 0 0 1-15.993709-20.208851l75.950603-321.66952-264.124212-237.276309a16.4333 16.4333 0 0 1 10.981552-28.659675h315.790508l147.48065-339.659876a16.4333 16.4333 0 0 1 14.892678-9.888738c6.540453 0.057517 12.398925 3.672843 15.106311 9.560072l156.584698 339.988542h316.065765a16.4333 16.4333 0 0 1 10.10648 29.395065l-262.871174 204.952008 89.269794 343.702467a16.4333 16.4333 0 1 1-24.481509 18.15058l-299.03265-182.988902-276.358804 191.669793a16.441517 16.441517 0 0 1-9.366981 2.933344zM72.635186 414.201324l239.474262 215.132437a16.437408 16.437408 0 0 1 5.012157 16.001926l-68.346094 289.460253 249.958708-173.363097a16.45795 16.45795 0 0 1 17.945163-0.513541l273.458327 167.340293-81.74745-314.763426a16.429192 16.429192 0 0 1 5.796846-17.090632l233.689742-182.200105h-278.782717a16.4333 16.4333 0 0 1-14.925544-9.560072l-145.619579-316.180798-137.152321 315.848024a16.4333 16.4333 0 0 1-15.073444 9.888738H72.635186z" fill="#6E6E96" p-id="1396"></path><path d="M836.947964 626.630483l55.462387 55.462388-37.759615 37.763723-55.462387-55.462387z" fill="#FF9FA6" p-id="1397"></path><path d="M509.945838 924.88666h49.299899v82.166499h-49.299899z" fill="#C4FFF1" p-id="1398"></path></svg>
